<?xml version="1.0" encoding="UTF-8"?>
<svg xmlns="http://www.w3.org/2000/svg" style="display: none;">
  <!-- Security Icons -->
  <symbol id="icon-lock" viewBox="0 0 24 24">
    <path d="M12 1C8.676 1 6 3.676 6 7v2H4v14h16V9h-2V7c0-3.324-2.676-6-6-6zm0 2c2.276 0 4 1.724 4 4v2H8V7c0-2.276 1.724-4 4-4z" fill="currentColor"/>
  </symbol>

  <symbol id="icon-unlock" viewBox="0 0 24 24">
    <path d="M12 1C8.676 1 6 3.676 6 7v2h2V7c0-2.276 1.724-4 4-4s4 1.724 4 4h2c0-3.324-2.676-6-6-6zM4 9v14h16V9H4z" fill="currentColor"/>
  </symbol>

  <symbol id="icon-shield" viewBox="0 0 24 24">
    <path d="M12 1L3 5v6c0 5.55 3.84 10.74 9 12 5.16-1.26 9-6.45 9-12V5l-9-4zm0 2.18l7 3.12v4.7c0 4.38-2.92 8.46-7 9.82-4.08-1.36-7-5.44-7-9.82V6.3l7-3.12z" fill="currentColor"/>
  </symbol>

  <symbol id="icon-key" viewBox="0 0 24 24">
    <path d="M7 14A7 7 0 0 1 7 0a7 7 0 0 1 7 7c0 1.5-.5 2.9-1.3 4L22 20.3V24h-4v-3h-3v-3h-3l-3.7-3.7A7 7 0 0 1 7 14zm0-11a4 4 0 1 0 0 8 4 4 0 0 0 0-8z" fill="currentColor"/>
  </symbol>

  <symbol id="icon-eye" viewBox="0 0 24 24">
    <path d="M12 4.5C7 4.5 2.73 7.61 1 12c1.73 4.39 6 7.5 11 7.5s9.27-3.11 11-7.5c-1.73-4.39-6-7.5-11-7.5zM12 17c-2.76 0-5-2.24-5-5s2.24-5 5-5 5 2.24 5 5-2.24 5-5 5zm0-8c-1.66 0-3 1.34-3 3s1.34 3 3 3 3-1.34 3-3-1.34-3-3-3z" fill="currentColor"/>
  </symbol>

  <symbol id="icon-eye-off" viewBox="0 0 24 24">
    <path d="M12 7c2.76 0 5 2.24 5 5 0 .65-.13 1.26-.36 1.83l2.92 2.92c1.51-1.26 2.7-2.89 3.43-4.75-1.73-4.39-6-7.5-11-7.5-1.4 0-2.74.25-3.98.7l2.16 2.16C10.74 7.13 11.35 7 12 7zM2 4.27l2.28 2.28.46.46C3.08 8.3 1.78 10.02 1 12c1.73 4.39 6 7.5 11 7.5 1.55 0 3.03-.3 4.38-.84l.42.42L19.73 22 21 20.73 3.27 3 2 4.27zM7.53 9.8l1.55 1.55c-.05.21-.08.43-.08.65 0 1.66 1.34 3 3 3 .22 0 .44-.03.65-.08l1.55 1.55c-.67.33-1.41.53-2.2.53-2.76 0-5-2.24-5-5 0-.79.2-1.53.53-2.2zm4.31-.78l3.15 3.15.02-.16c0-1.66-1.34-3-3-3l-.17.01z" fill="currentColor"/>
  </symbol>

  <symbol id="icon-fingerprint" viewBox="0 0 24 24">
    <path d="M12 2C6.48 2 2 6.48 2 12s4.48 10 10 10 10-4.48 10-10S17.52 2 12 2zm0 2c4.42 0 8 3.58 8 8 0 1.85-.63 3.55-1.69 4.9L16.9 15.5c.52-.99.82-2.12.82-3.32 0-3.87-3.13-7-7-7s-7 3.13-7 7c0 1.2.3 2.33.82 3.32l-1.41 1.41C2.63 15.55 2 13.85 2 12c0-4.42 3.58-8 8-8zm0 2c2.76 0 5 2.24 5 5 0 1.43-.61 2.71-1.58 3.61l-1.41-1.41C14.63 12.58 15 11.84 15 11c0-1.66-1.34-3-3-3S9 9.34 9 11c0 .84.37 1.58.99 2.11l-1.41 1.41C7.61 13.71 7 12.43 7 11c0-2.76 2.24-5 5-5z" fill="currentColor"/>
  </symbol>

  <!-- Action Icons -->
  <symbol id="icon-add" viewBox="0 0 24 24">
    <path d="M19 13h-6v6h-2v-6H5v-2h6V5h2v6h6v2z" fill="currentColor"/>
  </symbol>

  <symbol id="icon-remove" viewBox="0 0 24 24">
    <path d="M19 13H5v-2h14v2z" fill="currentColor"/>
  </symbol>

  <symbol id="icon-edit" viewBox="0 0 24 24">
    <path d="M3 17.25V21h3.75L17.81 9.94l-3.75-3.75L3 17.25zM20.71 7.04c.39-.39.39-1.02 0-1.41l-2.34-2.34c-.39-.39-1.02-.39-1.41 0l-1.83 1.83 3.75 3.75 1.83-1.83z" fill="currentColor"/>
  </symbol>

  <symbol id="icon-save" viewBox="0 0 24 24">
    <path d="M17 3H5c-1.11 0-2 .9-2 2v14c0 1.1.89 2 2 2h14c1.1 0 2-.9 2-2V7l-4-4zm-5 16c-1.66 0-3-1.34-3-3s1.34-3 3-3 3 1.34 3 3-1.34 3-3 3zm3-10H5V5h10v4z" fill="currentColor"/>
  </symbol>

  <!-- Navigation Icons -->
  <symbol id="icon-menu" viewBox="0 0 24 24">
    <path d="M3 18h18v-2H3v2zm0-5h18v-2H3v2zm0-7v2h18V6H3z" fill="currentColor"/>
  </symbol>

  <symbol id="icon-close" viewBox="0 0 24 24">
    <path d="M19 6.41L17.59 5 12 10.59 6.41 5 5 6.41 10.59 12 5 17.59 6.41 19 12 13.41 17.59 19 19 17.59 13.41 12z" fill="currentColor"/>
  </symbol>

  <symbol id="icon-settings" viewBox="0 0 24 24">
    <path d="M19.14 12.94c.04-.3.06-.61.06-.94 0-.32-.02-.64-.07-.94l2.03-1.58c.18-.14.23-.41.12-.61l-1.92-3.32c-.12-.22-.37-.29-.59-.22l-2.39.96c-.5-.38-1.03-.7-1.62-.94l-.36-2.54c-.04-.24-.24-.41-.48-.41h-3.84c-.24 0-.43.17-.47.41l-.36 2.54c-.59.24-1.13.57-1.62.94l-2.39-.96c-.22-.08-.47 0-.59.22L2.74 8.87c-.12.21-.08.47.12.61l2.03 1.58c-.05.3-.09.63-.09.94s.02.64.07.94l-2.03 1.58c-.18.14-.23.41-.12.61l1.92 3.32c.12.22.37.29.59.22l2.39-.96c.5.38 1.03.7 1.62.94l.36 2.54c.05.24.24.41.48.41h3.84c.24 0 .44-.17.47-.41l.36-2.54c.59-.24 1.13-.56 1.62-.94l2.39.96c.22.08.47 0 .59-.22l1.92-3.32c.12-.22.07-.47-.12-.61l-2.01-1.58zM12 15.6c-1.98 0-3.6-1.62-3.6-3.6s1.62-3.6 3.6-3.6 3.6 1.62 3.6 3.6-1.62 3.6-3.6 3.6z" fill="currentColor"/>
  </symbol>

  <!-- Status Icons -->
  <symbol id="icon-check" viewBox="0 0 24 24">
    <path d="M9 16.17L4.83 12l-1.42 1.41L9 19 21 7l-1.41-1.41z" fill="currentColor"/>
  </symbol>

  <symbol id="icon-warning" viewBox="0 0 24 24">
    <path d="M1 21h22L12 2 1 21zm12-3h-2v-2h2v2zm0-4h-2v-4h2v4z" fill="currentColor"/>
  </symbol>

  <symbol id="icon-error" viewBox="0 0 24 24">
    <path d="M12 2C6.48 2 2 6.48 2 12s4.48 10 10 10 10-4.48 10-10S17.52 2 12 2zm1 15h-2v-2h2v2zm0-4h-2V7h2v6z" fill="currentColor"/>
  </symbol>

  <symbol id="icon-info" viewBox="0 0 24 24">
    <path d="M12 2C6.48 2 2 6.48 2 12s4.48 10 10 10 10-4.48 10-10S17.52 2 12 2zm1 15h-2v-6h2v6zm0-8h-2V7h2v2z" fill="currentColor"/>
  </symbol>

  <symbol id="icon-loading" viewBox="0 0 24 24">
    <path d="M12 4V1L8 5l4 4V6c3.31 0 6 2.69 6 6 0 1.01-.25 1.97-.7 2.8l1.46 1.46C19.54 15.03 20 13.57 20 12c0-4.42-3.58-8-8-8zm0 14c-3.31 0-6-2.69-6-6 0-1.01.25-1.97.7-2.8L5.24 7.74C4.46 8.97 4 10.43 4 12c0 4.42 3.58 8 8 8v3l4-4-4-4v3z" fill="currentColor"/>
  </symbol>

  <symbol id="icon-sync" viewBox="0 0 24 24">
    <path d="M12 4V1L8 5l4 4V6c3.31 0 6 2.69 6 6 0 1.01-.25 1.97-.7 2.8l1.46 1.46C19.54 15.03 20 13.57 20 12c0-4.42-3.58-8-8-8zm0 14c-3.31 0-6-2.69-6-6 0-1.01.25-1.97.7-2.8L5.24 7.74C4.46 8.97 4 10.43 4 12c0 4.42 3.58 8 8 8v3l4-4-4-4v3z" fill="currentColor"/>
  </symbol>

  <!-- Additional Security Icons -->
  <symbol id="icon-encryption" viewBox="0 0 24 24">
    <path d="M18 8h-1V6c0-2.76-2.24-5-5-5S7 3.24 7 6v2H6c-1.1 0-2 .9-2 2v10c0 1.1.9 2 2 2h12c1.1 0 2-.9 2-2V10c0-1.1-.9-2-2-2zM9 6c0-1.66 1.34-3 3-3s3 1.34 3 3v2H9V6zm9 14H6V10h12v10zm-6-3c1.1 0 2-.9 2-2s-.9-2-2-2-2 .9-2 2 .9 2 2 2z" fill="currentColor"/>
  </symbol>

  <symbol id="icon-vault" viewBox="0 0 24 24">
    <path d="M18 8h-1V6c0-2.76-2.24-5-5-5S7 3.24 7 6v2H6c-1.1 0-2 .9-2 2v10c0 1.1.9 2 2 2h12c1.1 0 2-.9 2-2V10c0-1.1-.9-2-2-2zm-6 9c-1.1 0-2-.9-2-2s.9-2 2-2 2 .9 2 2-.9 2-2 2zm3.1-9H8.9V6c0-1.71 1.39-3.1 3.1-3.1 1.71 0 3.1 1.39 3.1 3.1v2z" fill="currentColor"/>
  </symbol>
</svg> 